<?xml version="1.0" encoding="UTF-8" standalone="no"?>
<svg
   xml:space="preserve"
   width="64"
   height="64"
   viewBox="0 0 16.933 16.933"
   version="1.1"
   id="svg2"
   sodipodi:docname="half-life-3.svg"
   inkscape:version="1.4.4 (dcaf3e7d9e, 2026-05-05)"
   xmlns:inkscape="http://www.inkscape.org/namespaces/inkscape"
   xmlns:sodipodi="http://sodipodi.sourceforge.net/DTD/sodipodi-0.dtd"
   xmlns="http://www.w3.org/2000/svg"
   xmlns:svg="http://www.w3.org/2000/svg"><sodipodi:namedview
     id="namedview2"
     pagecolor="#505050"
     bordercolor="#eeeeee"
     borderopacity="1"
     inkscape:showpageshadow="0"
     inkscape:pageopacity="0"
     inkscape:pagecheckerboard="0"
     inkscape:deskcolor="#505050"
     inkscape:zoom="11.313709"
     inkscape:cx="37.520853"
     inkscape:cy="37.962795"
     inkscape:window-width="1374"
     inkscape:window-height="891"
     inkscape:window-x="0"
     inkscape:window-y="0"
     inkscape:window-maximized="1"
     inkscape:current-layer="g3" /><defs
     id="defs2"><linearGradient
   id="a"
   x1="7.937"
   x2="7.937"
   y1="15.081"
   y2="1.852"
   gradientUnits="userSpaceOnUse"><stop
     offset="0"
     stop-color="#2858e4"
     id="stop1" /><stop
     offset="1"
     stop-color="#5ab9f4"
     id="stop2" /></linearGradient><filter
   id="filter2076"
   x="-0.048000001"
   y="-0.048000001"
   width="1.096"
   height="1.096"
   color-interpolation-filters="sRGB"><feGaussianBlur
     stdDeviation="1.1"
     id="feGaussianBlur161" /></filter><linearGradient
   id="linearGradient2070"
   x1="145"
   x2="200"
   y1="59"
   y2="4"
   gradientTransform="matrix(0.26457812,0,0,0.26457812,-37.173225,0.1322892)"
   gradientUnits="userSpaceOnUse"><stop
     stop-color="#ffc841"
     offset="0"
     id="stop154" /><stop
     stop-color="#ffbe37"
     offset=".4925"
     id="stop156" /><stop
     stop-color="#ffc841"
     offset="1"
     id="stop158" /></linearGradient>
	
	
	
</defs><g
     id="g1"
     inkscape:label="bg"><rect
       x="4.5000014"
       y="4.5000014"
       width="55"
       height="55"
       rx="13.002"
       ry="13.002"
       filter="url(#filter2076)"
       opacity="0.3"
       id="rect170"
       transform="scale(0.26457812)"
       inkscape:label="shadow" /><rect
       x="1.1906017"
       y="1.1906016"
       width="14.551797"
       height="14.551797"
       rx="3.4400446"
       ry="3.4400446"
       fill="url(#linearGradient2070)"
       id="rect172"
       style="fill:url(#linearGradient2070);stroke-width:0.264578"
       inkscape:label="backdrop" /></g><g
     id="g3"
     transform="matrix(0.03355302,0,0,0.03355302,2.2687639,3.7237338)"
     style="fill:#833808;fill-opacity:1"
     inkscape:label="logo"><path
       d="m 159.37986,8.3319058 c -20.67453,0 -40.1714,3.8795802 -58.46266,11.7202542 -18.290933,7.807223 -34.205443,18.545489 -47.74348,32.249949 -13.551537,13.671479 -24.303026,29.6027 -32.26535,47.774281 -7.960088,18.13666 -11.9358695,37.53613 -11.9358695,58.23164 0,20.65987 3.9754235,40.06225 11.9358695,58.23164 7.962324,18.1398 18.714111,34.05509 32.26535,47.72808 13.537679,13.70538 29.454091,24.44157 47.74348,32.28075 18.29167,7.80943 37.78592,11.73566 58.46266,11.73566 15.92354,0 31.28095,-2.51825 46.08015,-7.53115 14.79437,-5.04616 28.3355,-12.04303 40.62816,-20.97633 12.29094,-8.93398 23.12256,-19.52798 32.48097,-31.83412 9.34309,-12.27362 16.53227,-25.81426 21.56157,-40.64356 L 355.42074,77.43674 c 1.39775,-3.922529 2.60117,-7.608826 3.57306,-11.11961 0.9716,-3.476861 1.4631,-7.153319 1.4631,-11.073407 0,-6.719485 -1.23768,-12.920572 -3.75787,-18.650759 C 354.1929,30.866433 350.81684,25.926672 346.6267,21.730882 342.43307,17.539954 337.47578,14.262056 331.76461,11.874164 326.03684,9.4916682 319.95787,8.3319058 313.54509,8.3319058 Z M 304.41222,24.657095 c 6.47548,0 11.23621,1.392862 14.30764,4.158303 3.07365,2.766517 4.62034,7.366685 4.62034,13.799405 0,1.60844 -0.13756,3.226136 -0.40043,4.866755 -0.26525,1.640627 -0.74802,3.175172 -1.47851,4.589534 -0.72571,1.415431 -1.70575,2.622042 -2.92621,3.619264 -1.22224,0.99833 -2.75357,1.638057 -4.60494,1.894338 v 0.169412 c 2.2457,0.386016 4.06327,1.112413 5.452,2.140756 1.38766,1.029415 2.43038,2.278114 3.15723,3.757874 0.72691,1.48082 1.22598,3.112568 1.49391,4.912957 0.26227,1.802551 0.40043,3.675873 0.40043,5.606009 -10e-4,6.949574 -1.8593,11.961114 -5.55981,15.016094 -3.69919,3.056053 -9.04496,4.574133 -16.04796,4.574133 -3.43379,0 -6.35031,-0.327974 -8.76324,-0.970271 -2.41052,-0.642267 -4.37996,-1.707188 -5.89863,-3.188032 -1.52088,-1.478704 -2.63413,-3.421913 -3.32664,-5.867827 -0.69473,-2.444877 -1.04728,-5.467267 -1.04728,-9.071261 h 13.98422 c 0,1.094804 8.2e-4,2.201837 0.0308,3.326642 0.0328,1.12592 0.23704,2.119252 0.60064,2.987818 0.36093,0.868565 0.94726,1.565204 1.74033,2.109953 0.79397,0.546866 1.94658,0.831661 3.46525,0.831661 1.58466,0 2.83155,-0.325828 3.75788,-0.970271 0.9248,-0.642326 1.60109,-1.465849 2.03295,-2.464179 0.42827,-0.997258 0.71592,-2.10286 0.84706,-3.357445 0.13113,-1.254611 0.20021,-2.476587 0.20021,-3.634665 0,-2.444876 -0.20347,-4.360281 -0.63144,-5.744618 -0.43156,-1.383273 -1.16619,-2.404696 -2.18696,-3.080224 -1.02644,-0.675558 -2.36757,-1.102042 -4.0197,-1.262892 -1.65201,-0.159449 -3.7002,-0.231017 -6.14504,-0.231017 V 52.45612 c 2.2457,0.129944 4.14558,0.114736 5.69841,-0.0462 1.55157,-0.159449 2.77476,-0.571904 3.66547,-1.247491 0.89321,-0.675558 1.54505,-1.711309 1.94054,-3.095626 0.39639,-1.383273 0.58524,-3.228236 0.58524,-5.544404 0,-0.89968 -0.0557,-1.837904 -0.15401,-2.803004 -0.0984,-0.965069 -0.32627,-1.830728 -0.72385,-2.602789 -0.39669,-0.772062 -0.9538,-1.396417 -1.64792,-1.878937 -0.69383,-0.48255 -1.62895,-0.723853 -2.81841,-0.723853 -1.25741,0 -2.24759,0.212959 -2.97241,0.662248 -0.72781,0.450392 -1.28551,1.0477 -1.64792,1.78653 -0.3645,0.739874 -0.57871,1.578574 -0.67765,2.510383 -0.0984,0.933955 -0.15401,1.884138 -0.15401,2.849208 h -13.96882 c 0,-3.474248 0.37771,-6.35496 1.17048,-8.64003 0.79278,-2.282924 1.98721,-4.085495 3.57306,-5.436596 1.58585,-1.286769 3.62101,-2.209905 6.09885,-2.7568 2.47787,-0.545763 5.47571,-0.831661 8.97885,-0.831661 z M 159.37986,35.530287 c 16.75737,0 32.51616,3.244705 47.32764,9.656503 14.79676,6.41131 27.72137,15.200145 38.74923,26.382122 11.02813,11.182952 19.6918,24.249828 25.98169,39.180458 6.29088,14.93259 9.42549,30.78493 9.42549,47.55866 0,16.73997 -3.13559,32.53062 -9.42549,47.32765 -6.28998,14.79533 -14.95356,27.70523 -25.98169,38.74922 -11.02792,11.04958 -23.95244,19.67271 -38.74923,25.98169 -14.81048,6.27111 -30.57028,9.41009 -47.32764,9.41009 -16.75614,0 -32.60845,-3.13874 -47.55867,-9.41009 C 96.888619,264.05761 83.822466,255.43448 72.656139,244.3849 61.47482,233.34091 52.683731,220.43074 46.258617,205.63568 c -6.426426,-14.79682 -9.625702,-30.58887 -9.625702,-47.32765 0,-16.77153 3.199276,-32.62606 9.625702,-47.55866 C 52.683404,95.818982 61.47482,82.753089 72.656139,71.568912 83.822165,60.386685 96.889596,51.596875 111.82119,45.18679 c 14.94998,-6.411292 30.80253,-9.656503 47.55867,-9.656503 z"
       style="fill:#833808;fill-opacity:1;display:inline;stroke-width:0.244213"
       id="path3"
       inkscape:label="frame"
       transform="translate(1.203785e-7)" /><path
       d="M 118.30506,69.489761 V 93.77733 h 21.37676 l 8.37821,20.51429 -67.456912,113.53707 h 34.775732 l 46.92722,-74.57223 30.58663,80.42466 51.10092,-15.0623 -8.79404,-25.53506 -23.04008,7.08452 -51.11632,-130.678519 z"
       style="display:inline;stroke-width:0.244213"
       id="path4"
       inkscape:label="lambda" /></g></svg>
