<?xml version="1.0" encoding="UTF-8" standalone="no"?>
<svg
   width="64"
   height="64"
   version="1.1"
   id="svg8"
   sodipodi:docname="obs.svg"
   inkscape:version="1.4.2 (2aeb623e1d, 2025-05-12)"
   xmlns:inkscape="http://www.inkscape.org/namespaces/inkscape"
   xmlns:sodipodi="http://sodipodi.sourceforge.net/DTD/sodipodi-0.dtd"
   xmlns="http://www.w3.org/2000/svg"
   xmlns:svg="http://www.w3.org/2000/svg">
  <sodipodi:namedview
     id="namedview8"
     pagecolor="#ffffff"
     bordercolor="#000000"
     borderopacity="0.25"
     inkscape:showpageshadow="2"
     inkscape:pageopacity="0.0"
     inkscape:pagecheckerboard="0"
     inkscape:deskcolor="#d1d1d1"
     inkscape:zoom="5.265625"
     inkscape:cx="31.905045"
     inkscape:cy="32"
     inkscape:window-width="1374"
     inkscape:window-height="831"
     inkscape:window-x="0"
     inkscape:window-y="0"
     inkscape:window-maximized="1"
     inkscape:current-layer="svg8" />
  <defs
     id="defs2">
    <filter
       id="filter904"
       x="-0.061616938"
       y="-0.058465921"
       width="1.1232339"
       height="1.1169318"
       color-interpolation-filters="sRGB">
      <feGaussianBlur
         stdDeviation="0.97558723"
         id="feGaussianBlur1" />
    </filter>
    <linearGradient
       id="linearGradient862-3"
       x1="7.9373"
       x2="7.9373"
       y1="15.081"
       y2="1.852"
       gradientTransform="matrix(3.7795 0 0 3.7795 .00014324 .031541)"
       gradientUnits="userSpaceOnUse">
      <stop
         stop-color="#1a1a1a"
         offset="0"
         id="stop1" />
      <stop
         stop-color="#4d4d4d"
         offset="1"
         id="stop2" />
    </linearGradient>
    <filter
       id="filter1057-2"
       x="-0.026999999"
       y="-0.026999999"
       width="1.054"
       height="1.054"
       color-interpolation-filters="sRGB">
      <feGaussianBlur
         stdDeviation="0.61875"
         id="feGaussianBlur1-5" />
    </filter>
    <linearGradient
       id="linearGradient1053-0-9"
       x1="-127"
       x2="-72"
       y1="60"
       y2="5"
       gradientTransform="translate(131.499,-0.510001)"
       gradientUnits="userSpaceOnUse">
      <stop
         stop-color="#1d2123"
         offset="0"
         id="stop1-3"
         style="stop-color:#0d0d0d;stop-opacity:1;" />
      <stop
         stop-color="#33393e"
         stop-opacity=".99608"
         offset="1"
         id="stop2-6"
         style="stop-color:#262626;stop-opacity:0.99607998;" />
    </linearGradient>
    <filter
       id="filter1057-2-3"
       x="-0.026999999"
       y="-0.026999999"
       width="1.054"
       height="1.054"
       color-interpolation-filters="sRGB">
      <feGaussianBlur
         stdDeviation="0.61875"
         id="feGaussianBlur1-5-9" />
    </filter>
    <linearGradient
       id="linearGradient1053-0-9-5"
       x1="-127"
       x2="-72"
       y1="60"
       y2="5"
       gradientTransform="translate(131.499,-0.510001)"
       gradientUnits="userSpaceOnUse">
      <stop
         stop-color="#1d2123"
         offset="0"
         id="stop1-3-6"
         style="stop-color:#080808;stop-opacity:1;" />
      <stop
         stop-color="#33393e"
         stop-opacity=".99608"
         offset="1"
         id="stop2-6-2"
         style="stop-color:#1a1a1a;stop-opacity:0.99607998;" />
    </linearGradient>
    <filter
       id="filter1057-2-3-0"
       x="-0.026999999"
       y="-0.026999999"
       width="1.054"
       height="1.054"
       color-interpolation-filters="sRGB">
      <feGaussianBlur
         stdDeviation="0.61875"
         id="feGaussianBlur1-5-93" />
    </filter>
    <linearGradient
       id="linearGradient1053-0-9-5-6"
       x1="-127"
       x2="-72"
       y1="60"
       y2="5"
       gradientTransform="translate(131.499,-0.510001)"
       gradientUnits="userSpaceOnUse">
      <stop
         stop-color="#1d2123"
         offset="0"
         id="stop1-3-6-0"
         style="stop-color:#242424;stop-opacity:1;" />
      <stop
         stop-color="#33393e"
         stop-opacity=".99608"
         offset="1"
         id="stop2-6-2-6"
         style="stop-color:#2b2b2b;stop-opacity:0.99607998;" />
    </linearGradient>
    <filter
       id="filter1057-2-3-2"
       x="-0.026999999"
       y="-0.026999999"
       width="1.054"
       height="1.054"
       color-interpolation-filters="sRGB">
      <feGaussianBlur
         stdDeviation="0.61875"
         id="feGaussianBlur1-5-6" />
    </filter>
    <linearGradient
       id="linearGradient1053-0-9-5-1"
       x1="-127"
       x2="-72"
       y1="60"
       y2="5"
       gradientTransform="translate(131.499,-0.510001)"
       gradientUnits="userSpaceOnUse">
      <stop
         stop-color="#1d2123"
         offset="0"
         id="stop1-3-6-8"
         style="stop-color:#1d2123;stop-opacity:1;" />
      <stop
         stop-color="#33393e"
         stop-opacity=".99608"
         offset="1"
         id="stop2-6-2-7"
         style="stop-color:#33393e;stop-opacity:0.99607843;" />
    </linearGradient>
  </defs>
  <g
     id="g30"
     inkscape:label="bg">
    <rect
       x="4.4999995"
       y="4.4999995"
       width="55"
       height="55"
       ry="15"
       fill="#141414"
       filter="url(#filter1057-2)"
       opacity="0.3"
       stroke-linecap="round"
       stroke-width="2.7444"
       id="rect2"
       style="display:inline;filter:url(#filter1057-2-3-2)" />
    <rect
       x="4.5"
       y="4.5"
       width="55"
       height="55"
       ry="15"
       fill="url(#linearGradient1053-0-9)"
       stroke-width="2.7444"
       id="rect3"
       style="display:inline;fill:url(#linearGradient1053-0-9-5-1)" />
  </g>
  <path
     d="m26.553 10.074c-3.9348 2.0764-7.2277 5.9591-7.3223 10.581-0.07543 2.3987 0.42516 4.9277 1.5978 6.9946 4.1144 0.06995 8.351 2.4193 9.7938 6.4213 2.1135 5.2898-0.37442 12.312-5.9358 14.261-2.8527 1.0272-6.0249 0.56916-8.7816-0.53762 3.7688 2.3727 8.7871 3.2806 12.837 1.0423 2.1203-1.1232 3.9869-2.8225 5.2583-4.8358-2.001-3.607-2.0805-8.4456 0.66105-11.703 3.5137-4.4793 10.835-5.859 15.308-2.0202 2.3164 1.9544 3.5041 4.9305 3.9238 7.8696 0.16869-4.4463-1.547-9.2411-5.4996-11.632-2.0325-1.2961-4.4326-2.0065-6.8149-2.1711-2.1244 3.5371-6.2745 6.0277-10.467 5.2857-5.6327-0.79546-10.495-6.4364-9.407-12.228 0.53214-2.9843 2.5194-5.4996 4.8523-7.3292z"
     fill-rule="evenodd"
     filter="url(#filter904)"
     opacity=".5"
     id="path7" />
  <path
     d="m26.553 10.074c-3.9348 2.0764-7.2277 5.9591-7.3223 10.581-0.07543 2.3987 0.42516 4.9277 1.5978 6.9946 4.1144 0.06995 8.351 2.4193 9.7938 6.4213 2.1135 5.2898-0.37442 12.312-5.9358 14.261-2.8527 1.0272-6.0249 0.56916-8.7816-0.53762 3.7688 2.3727 8.7871 3.2806 12.837 1.0423 2.1203-1.1232 3.9869-2.8225 5.2583-4.8358-2.001-3.607-2.0805-8.4456 0.66105-11.703 3.5137-4.4793 10.835-5.859 15.308-2.0202 2.3164 1.9544 3.5041 4.9305 3.9238 7.8696 0.16869-4.4463-1.547-9.2411-5.4996-11.632-2.0325-1.2961-4.4326-2.0065-6.8149-2.1711-2.1244 3.5371-6.2745 6.0277-10.467 5.2857-5.6327-0.79546-10.495-6.4364-9.407-12.228 0.53214-2.9843 2.5194-5.4996 4.8523-7.3292z"
     fill="#f9f9f9"
     fill-rule="evenodd"
     id="path8" />
</svg>
