<?xml version="1.0" encoding="UTF-8" standalone="no"?>
<svg
   width="64"
   height="64"
   version="1.1"
   id="svg22"
   sodipodi:docname="qflipper.svg"
   xml:space="preserve"
   inkscape:version="1.4.2 (2aeb623e1d, 2025-05-12)"
   xmlns:inkscape="http://www.inkscape.org/namespaces/inkscape"
   xmlns:sodipodi="http://sodipodi.sourceforge.net/DTD/sodipodi-0.dtd"
   xmlns="http://www.w3.org/2000/svg"
   xmlns:svg="http://www.w3.org/2000/svg"
   xmlns:rdf="http://www.w3.org/1999/02/22-rdf-syntax-ns#"
   xmlns:cc="http://creativecommons.org/ns#"
   xmlns:dc="http://purl.org/dc/elements/1.1/"><sodipodi:namedview
     id="namedview1"
     pagecolor="#ffffff"
     bordercolor="#000000"
     borderopacity="0.25"
     inkscape:showpageshadow="2"
     inkscape:pageopacity="0.0"
     inkscape:pagecheckerboard="0"
     inkscape:deskcolor="#d1d1d1"
     showgrid="false"
     inkscape:zoom="5.6715159"
     inkscape:cx="33.588904"
     inkscape:cy="48.399759"
     inkscape:window-width="1374"
     inkscape:window-height="831"
     inkscape:window-x="0"
     inkscape:window-y="0"
     inkscape:window-maximized="1"
     inkscape:current-layer="svg22"><inkscape:page
       x="0"
       y="0"
       width="64"
       height="64"
       id="page2"
       margin="0"
       bleed="0" /></sodipodi:namedview><metadata
     id="metadata28"><rdf:RDF><cc:Work
         rdf:about=""><dc:format>image/svg+xml</dc:format><dc:type
           rdf:resource="http://purl.org/dc/dcmitype/StillImage" /></cc:Work></rdf:RDF></metadata><defs
     id="defs26"><style
       type="text/css"
       id="style860" /><style
       type="text/css"
       id="style867" /><style
       type="text/css"
       id="style869" /><filter
       id="filter1057"
       x="-0.026999999"
       y="-0.026999999"
       width="1.054"
       height="1.054"
       color-interpolation-filters="sRGB"><feGaussianBlur
         stdDeviation="0.61875"
         id="feGaussianBlur871" /></filter><linearGradient
       id="linearGradient1053"
       x1="-127"
       x2="-72"
       y1="60"
       y2="5"
       gradientTransform="translate(131.5,-0.51)"
       gradientUnits="userSpaceOnUse"><stop
         stop-color="#df2a2a"
         offset="0"
         id="stop874"
         style="stop-color:#ff5700;stop-opacity:1;" /><stop
         stop-color="#df2a2a"
         offset="1"
         id="stop1"
         style="stop-color:#ff8800;stop-opacity:1;" /></linearGradient><style
       type="text/css"
       id="style1026" /><style
       type="text/css"
       id="style1036" /><style
       type="text/css"
       id="style1038" /><style
       type="text/css"
       id="style1040" /><style
       type="text/css"
       id="style1042" /><style
       type="text/css"
       id="style1044" /><style
       type="text/css"
       id="style1046" /><style
       type="text/css"
       id="style1048" /></defs><rect
     x="4.5"
     y="4.5"
     width="55"
     height="55"
     ry="15"
     fill="#141414"
     filter="url(#filter1057)"
     opacity="0.3"
     stroke-linecap="round"
     stroke-width="2.7444"
     id="rect881"
     style="display:inline" /><rect
     x="4.5"
     y="4.5"
     width="55"
     height="55"
     ry="15"
     fill="url(#linearGradient1053)"
     stroke-linecap="round"
     stroke-width="2.7444"
     id="rect883"
     style="fill:url(#linearGradient1053)" /><g
     id="g114"
     transform="matrix(0.58680792,0,0,0.6874454,-3.2084752,11.720361)"
     style="fill:#ffffff;fill-opacity:1">
	
	
	
	
	
	
	
	<rect
   x="66"
   y="58"
   width="1"
   height="1"
   id="rect7"
   style="fill:#ffffff;fill-opacity:1" />
	<rect
   x="64"
   y="58"
   width="1"
   height="1"
   id="rect8"
   style="fill:#ffffff;fill-opacity:1" />
	<rect
   x="65"
   y="57"
   width="1"
   height="1"
   id="rect9"
   style="fill:#ffffff;fill-opacity:1" />
	<rect
   x="63"
   y="57"
   width="1"
   height="1"
   id="rect10"
   style="fill:#ffffff;fill-opacity:1" />
	<rect
   x="61"
   y="57"
   width="1"
   height="1"
   id="rect11"
   style="fill:#ffffff;fill-opacity:1" />
	<rect
   x="62"
   y="56"
   width="1"
   height="1"
   id="rect12"
   style="fill:#ffffff;fill-opacity:1" />
	<rect
   x="60"
   y="56"
   width="1"
   height="1"
   id="rect13"
   style="fill:#ffffff;fill-opacity:1" />
	<rect
   x="59"
   y="55"
   width="1"
   height="1"
   id="rect14"
   style="fill:#ffffff;fill-opacity:1" />
	<path
   d="m 75,41 c -0.89,0 -2.11,0 -3,0 v 1 c 1.6,0 3.4,0 5,0 v -1 c -0.5,0 -1.5,0 -2,0 z"
   id="path14"
   style="fill:#ffffff;fill-opacity:1" />
	<path
   d="m 45,41 h -1 v 1 c 0.5,0 1.5,0 2,0 v -1 z"
   id="path15"
   style="fill:#ffffff;fill-opacity:1" />
	<rect
   x="25"
   y="41"
   width="1"
   height="1"
   id="rect15"
   style="fill:#ffffff;fill-opacity:1" />
	<rect
   x="23"
   y="41"
   width="1"
   height="1"
   id="rect16"
   style="fill:#ffffff;fill-opacity:1" />
	<rect
   x="21"
   y="41"
   width="1"
   height="1"
   id="rect17"
   style="fill:#ffffff;fill-opacity:1" />
	<path
   d="m 79,40 h -1 v -1 c -0.5,0 -1.5,0 -2,0 v 1 h 1 v 1 c 1.25,0 2.75,0 4,0 v -1 c -0.5,0 -1.5,0 -2,0 z"
   id="path17"
   style="fill:#ffffff;fill-opacity:1" />
	<rect
   x="43"
   y="40"
   width="1"
   height="1"
   id="rect18"
   style="fill:#ffffff;fill-opacity:1" />
	<rect
   x="26"
   y="40"
   width="1"
   height="1"
   id="rect19"
   style="fill:#ffffff;fill-opacity:1" />
	<rect
   x="24"
   y="40"
   width="1"
   height="1"
   id="rect20"
   style="fill:#ffffff;fill-opacity:1" />
	<rect
   x="22"
   y="40"
   width="1"
   height="1"
   id="rect21"
   style="fill:#ffffff;fill-opacity:1" />
	<rect
   x="20"
   y="40"
   width="1"
   height="1"
   id="rect22"
   style="fill:#ffffff;fill-opacity:1" />
	<path
   d="m 82,39 h -1 v 1 c 0.89,0 2.11,0 3,0 v -1 c -0.5,0 -1.5,0 -2,0 z"
   id="path22"
   style="fill:#ffffff;fill-opacity:1" />
	<rect
   x="27"
   y="39"
   width="1"
   height="1"
   id="rect23"
   style="fill:#ffffff;fill-opacity:1" />
	<rect
   x="25"
   y="39"
   width="1"
   height="1"
   id="rect24"
   style="fill:#ffffff;fill-opacity:1" />
	<rect
   x="23"
   y="39"
   width="1"
   height="1"
   id="rect25"
   style="fill:#ffffff;fill-opacity:1" />
	<rect
   x="21"
   y="39"
   width="1"
   height="1"
   id="rect26"
   style="fill:#ffffff;fill-opacity:1" />
	<rect
   x="19"
   y="39"
   width="1"
   height="1"
   id="rect27"
   style="fill:#ffffff;fill-opacity:1" />
	<path
   d="m 84,38 v 1 c 0.5,0 1.5,0 2,0 v -1 c -0.5,0 -1.5,0 -2,0 z"
   id="path27"
   style="fill:#ffffff;fill-opacity:1" />
	<path
   d="m 75,39 h 1 v -1 c -0.5,0 -1.5,0 -2,0 v 1 z"
   id="path28"
   style="fill:#ffffff;fill-opacity:1" />
	<rect
   x="26"
   y="38"
   width="1"
   height="1"
   id="rect28"
   style="fill:#ffffff;fill-opacity:1" />
	<rect
   x="24"
   y="38"
   width="1"
   height="1"
   id="rect29"
   style="fill:#ffffff;fill-opacity:1" />
	<rect
   x="22"
   y="38"
   width="1"
   height="1"
   id="rect30"
   style="fill:#ffffff;fill-opacity:1" />
	<rect
   x="20"
   y="38"
   width="1"
   height="1"
   id="rect31"
   style="fill:#ffffff;fill-opacity:1" />
	<rect
   x="18"
   y="38"
   width="1"
   height="1"
   id="rect32"
   style="fill:#ffffff;fill-opacity:1" />
	<rect
   x="25"
   y="37"
   width="1"
   height="1"
   id="rect33"
   style="fill:#ffffff;fill-opacity:1" />
	<rect
   x="23"
   y="37"
   width="1"
   height="1"
   id="rect34"
   style="fill:#ffffff;fill-opacity:1" />
	<rect
   x="21"
   y="37"
   width="1"
   height="1"
   id="rect35"
   style="fill:#ffffff;fill-opacity:1" />
	<rect
   x="19"
   y="37"
   width="1"
   height="1"
   id="rect36"
   style="fill:#ffffff;fill-opacity:1" />
	<rect
   x="24"
   y="36"
   width="1"
   height="1"
   id="rect37"
   style="fill:#ffffff;fill-opacity:1" />
	<rect
   x="22"
   y="36"
   width="1"
   height="1"
   id="rect38"
   style="fill:#ffffff;fill-opacity:1" />
	<rect
   x="20"
   y="36"
   width="1"
   height="1"
   id="rect39"
   style="fill:#ffffff;fill-opacity:1" />
	<rect
   x="18"
   y="36"
   width="1"
   height="1"
   id="rect40"
   style="fill:#ffffff;fill-opacity:1" />
	<path
   d="m 29,35 c 0,0.5 0,1.5 0,2 h -1 v -1 h -1 v -1 h -1 c 0,-0.5 0,-1.5 0,-2 h -1 v 1 h -1 v 1 h 1 v 1 h 1 v 1 h 1 v 1 h 1 v 1 h 1 v 1 h 1 c 0,-0.89 0,-2.11 0,-3 h 1 c 0,-0.5 0,-1.5 0,-2 -0.5,0 -1.5,0 -2,0 z"
   id="path40"
   style="fill:#ffffff;fill-opacity:1" />
	<rect
   x="23"
   y="35"
   width="1"
   height="1"
   id="rect41"
   style="fill:#ffffff;fill-opacity:1" />
	<rect
   x="21"
   y="35"
   width="1"
   height="1"
   id="rect42"
   style="fill:#ffffff;fill-opacity:1" />
	<rect
   x="19"
   y="35"
   width="1"
   height="1"
   id="rect43"
   style="fill:#ffffff;fill-opacity:1" />
	<rect
   x="28"
   y="34"
   width="1"
   height="1"
   id="rect44"
   style="fill:#ffffff;fill-opacity:1" />
	<rect
   x="22"
   y="34"
   width="1"
   height="1"
   id="rect45"
   style="fill:#ffffff;fill-opacity:1" />
	<rect
   x="20"
   y="34"
   width="1"
   height="1"
   id="rect46"
   style="fill:#ffffff;fill-opacity:1" />
	<rect
   x="18"
   y="34"
   width="1"
   height="1"
   id="rect47"
   style="fill:#ffffff;fill-opacity:1" />
	<path
   d="m 34,34 v -1 c 0.89,0 2.11,0 3,0 v -1 c 1.95,0 4.05,0 6,0 v -1 h -1 c 0,-1.6 0,-3.4 0,-5 h -1 c 0,-0.5 0,-1.5 0,-2 h -1 v -1 c -0.5,0 -1.5,0 -2,0 v -1 c -1.6,0 -3.4,0 -5,0 v 1 c -0.5,0 -1.5,0 -2,0 v 1 h -1 c 0,0.5 0,1.5 0,2 h -1 c 0,1.6 0,3.4 0,5 h 1 c 0,0.5 0,1.5 0,2 h 1 c 0,0.5 0,1.5 0,2 h 1 v -1 c 0.5,0 1.5,0 2,0 z m -1,-7 v -1 c 0.5,0 1.5,0 2,0 0,0.5 0,1.5 0,2 -0.5,0 -1.5,0 -2,0 z"
   id="path47"
   style="fill:#ffffff;fill-opacity:1" />
	<rect
   x="23"
   y="33"
   width="1"
   height="1"
   id="rect48"
   style="fill:#ffffff;fill-opacity:1" />
	<rect
   x="21"
   y="33"
   width="1"
   height="1"
   id="rect49"
   style="fill:#ffffff;fill-opacity:1" />
	<rect
   x="19"
   y="33"
   width="1"
   height="1"
   id="rect50"
   style="fill:#ffffff;fill-opacity:1" />
	<path
   d="m 28,32 h -1 c 0,0.5 0,1.5 0,2 h 1 c 0,-0.5 0,-1.5 0,-2 z"
   id="path50"
   style="fill:#ffffff;fill-opacity:1" />
	<path
   d="m 24,33 h 1 c 0,-2.97 0,-6.03 0,-9 h -1 c 0,2.29 0,4.71 0,7 h -1 v 1 h 1 z"
   id="path51"
   style="fill:#ffffff;fill-opacity:1" />
	<rect
   x="22"
   y="32"
   width="1"
   height="1"
   id="rect51"
   style="fill:#ffffff;fill-opacity:1" />
	<rect
   x="20"
   y="32"
   width="1"
   height="1"
   id="rect52"
   style="fill:#ffffff;fill-opacity:1" />
	<rect
   x="21"
   y="31"
   width="1"
   height="1"
   id="rect53"
   style="fill:#ffffff;fill-opacity:1" />
	<path
   d="m 47,30 c 0,-1.95 0,-4.05 0,-6 h -1 c 0,2.29 0,4.71 0,7 0.89,0 2.11,0 3,0 v -1 c -0.5,0 -1.5,0 -2,0 z"
   id="path53"
   style="fill:#ffffff;fill-opacity:1" />
	<path
   d="m 27,30 c 0,-1.6 0,-3.4 0,-5 h -1 c 0,2.29 0,4.71 0,7 h 1 c 0,-0.5 0,-1.5 0,-2 z"
   id="path54"
   style="fill:#ffffff;fill-opacity:1" />
	<path
   d="m 49,29 v 1 c 0.5,0 1.5,0 2,0 v -1 c -0.5,0 -1.5,0 -2,0 z"
   id="path55"
   style="fill:#ffffff;fill-opacity:1" />
	<path
   d="m 51,28 v 1 c 0.5,0 1.5,0 2,0 v -1 c -0.5,0 -1.5,0 -2,0 z"
   id="path56"
   style="fill:#ffffff;fill-opacity:1" />
	<path
   d="m 53,27 v 1 c 0.5,0 1.5,0 2,0 v -1 c -0.5,0 -1.5,0 -2,0 z"
   id="path57"
   style="fill:#ffffff;fill-opacity:1" />
	<path
   d="m 55,26 v 1 c 0.5,0 1.5,0 2,0 v -1 c -0.5,0 -1.5,0 -2,0 z"
   id="path58"
   style="fill:#ffffff;fill-opacity:1" />
	<path
   d="m 44,27 c 0,1.6 0,3.4 0,5 h -1 v 1 c 0.5,0 1.5,0 2,0 0,-2.63 0,-5.37 0,-8 h -1 c 0,0.5 0,1.5 0,2 z"
   id="path59"
   style="fill:#ffffff;fill-opacity:1" />
	<rect
   x="57"
   y="25"
   width="1"
   height="1"
   id="rect59"
   style="fill:#ffffff;fill-opacity:1" />
	<path
   d="m 58,24 v 1 c 0.5,0 1.5,0 2,0 v -1 c -0.5,0 -1.5,0 -2,0 z"
   id="path60"
   style="fill:#ffffff;fill-opacity:1" />
	<path
   d="m 43,25 h 1 c 0,-0.5 0,-1.5 0,-2 h -1 c 0,0.5 0,1.5 0,2 z"
   id="path61"
   style="fill:#ffffff;fill-opacity:1" />
	<path
   d="m 28,24 v -1 h -1 c 0,0.5 0,1.5 0,2 h 1 z"
   id="path62"
   style="fill:#ffffff;fill-opacity:1" />
	<rect
   x="60"
   y="23"
   width="1"
   height="1"
   id="rect62"
   style="fill:#ffffff;fill-opacity:1" />
	<path
   d="m 26,23 v -1 h -1 c 0,0.5 0,1.5 0,2 h 1 z"
   id="path63"
   style="fill:#ffffff;fill-opacity:1" />
	<path
   d="m 61,22 v 1 c 0.5,0 1.5,0 2,0 v -1 c -0.5,0 -1.5,0 -2,0 z"
   id="path64"
   style="fill:#ffffff;fill-opacity:1" />
	<path
   d="m 54,22 c -0.5,0 -1.5,0 -2,0 v 1 c 1.25,0 2.75,0 4,0 v -1 c -0.5,0 -1.5,0 -2,0 z"
   id="path65"
   style="fill:#ffffff;fill-opacity:1" />
	<path
   d="m 46,22 h -1 c 0,0.5 0,1.5 0,2 h 1 c 0,-0.5 0,-1.5 0,-2 z"
   id="path66"
   style="fill:#ffffff;fill-opacity:1" />
	<rect
   x="42"
   y="22"
   width="1"
   height="1"
   id="rect66"
   style="fill:#ffffff;fill-opacity:1" />
	<rect
   x="28"
   y="22"
   width="1"
   height="1"
   id="rect67"
   style="fill:#ffffff;fill-opacity:1" />
	<rect
   x="63"
   y="21"
   width="1"
   height="1"
   id="rect68"
   style="fill:#ffffff;fill-opacity:1" />
	<path
   d="m 56,21 v 1 c 0.5,0 1.5,0 2,0 v -1 c -0.5,0 -1.5,0 -2,0 z"
   id="path68"
   style="fill:#ffffff;fill-opacity:1" />
	<rect
   x="51"
   y="21"
   width="1"
   height="1"
   id="rect69"
   style="fill:#ffffff;fill-opacity:1" />
	<rect
   x="44"
   y="21"
   width="1"
   height="1"
   id="rect70"
   style="fill:#ffffff;fill-opacity:1" />
	<rect
   x="41"
   y="21"
   width="1"
   height="1"
   id="rect71"
   style="fill:#ffffff;fill-opacity:1" />
	<rect
   x="29"
   y="21"
   width="1"
   height="1"
   id="rect72"
   style="fill:#ffffff;fill-opacity:1" />
	<rect
   x="26"
   y="21"
   width="1"
   height="1"
   id="rect73"
   style="fill:#ffffff;fill-opacity:1" />
	<path
   d="m 64,20 v 1 c 0.5,0 1.5,0 2,0 v -1 c -0.5,0 -1.5,0 -2,0 z"
   id="path73"
   style="fill:#ffffff;fill-opacity:1" />
	<path
   d="m 58,20 v 1 c 0.5,0 1.5,0 2,0 v -1 c -0.5,0 -1.5,0 -2,0 z"
   id="path74"
   style="fill:#ffffff;fill-opacity:1" />
	<rect
   x="50"
   y="20"
   width="1"
   height="1"
   id="rect74"
   style="fill:#ffffff;fill-opacity:1" />
	<rect
   x="43"
   y="20"
   width="1"
   height="1"
   id="rect75"
   style="fill:#ffffff;fill-opacity:1" />
	<path
   d="m 40,21 h 1 v -1 c -0.5,0 -1.5,0 -2,0 v 1 z"
   id="path75"
   style="fill:#ffffff;fill-opacity:1" />
	<path
   d="m 32,21 v -1 c -0.5,0 -1.5,0 -2,0 v 1 c 0.5,0 1.5,0 2,0 z"
   id="path76"
   style="fill:#ffffff;fill-opacity:1" />
	<rect
   x="27"
   y="20"
   width="1"
   height="1"
   id="rect76"
   style="fill:#ffffff;fill-opacity:1" />
	<rect
   x="66"
   y="19"
   width="1"
   height="1"
   id="rect77"
   style="fill:#ffffff;fill-opacity:1" />
	<rect
   x="60"
   y="19"
   width="1"
   height="1"
   id="rect78"
   style="fill:#ffffff;fill-opacity:1" />
	<path
   d="m 34,20 c 1.6,0 3.4,0 5,0 v -1 c -2.29,0 -4.71,0 -7,0 v 1 c 0.5,0 1.5,0 2,0 z"
   id="path78"
   style="fill:#ffffff;fill-opacity:1" />
	<rect
   x="28"
   y="19"
   width="1"
   height="1"
   id="rect79"
   style="fill:#ffffff;fill-opacity:1" />
	<path
   d="m 61,18 v 1 c 0.5,0 1.5,0 2,0 v -1 c -0.5,0 -1.5,0 -2,0 z"
   id="path79"
   style="fill:#ffffff;fill-opacity:1" />
	<rect
   x="56"
   y="18"
   width="1"
   height="1"
   id="rect80"
   style="fill:#ffffff;fill-opacity:1" />
	<path
   d="m 50,18 v -1 h -1 c 0,0.89 0,2.11 0,3 h 1 c 0,-0.5 0,-1.5 0,-2 z"
   id="path80"
   style="fill:#ffffff;fill-opacity:1" />
	<path
   d="m 31,19 v -1 c -0.5,0 -1.5,0 -2,0 v 1 c 0.5,0 1.5,0 2,0 z"
   id="path81"
   style="fill:#ffffff;fill-opacity:1" />
	<rect
   x="63"
   y="17"
   width="1"
   height="1"
   id="rect81"
   style="fill:#ffffff;fill-opacity:1" />
	<rect
   x="55"
   y="17"
   width="1"
   height="1"
   id="rect82"
   style="fill:#ffffff;fill-opacity:1" />
	<path
   d="m 33,18 c 2.29,0 4.71,0 7,0 v 1 c 0.5,0 1.5,0 2,0 v 1 h 1 v -1 h 1 c 0,-0.5 0,-1.5 0,-2 h -1 v 1 h -1 v -1 h -1 v -1 h -1 v 1 c -2.97,0 -6.03,0 -9,0 v 1 c 0.5,0 1.5,0 2,0 z"
   id="path82"
   style="fill:#ffffff;fill-opacity:1" />
	<rect
   x="59"
   y="16"
   width="1"
   height="1"
   id="rect83"
   style="fill:#ffffff;fill-opacity:1" />
	<rect
   x="54"
   y="16"
   width="1"
   height="1"
   id="rect84"
   style="fill:#ffffff;fill-opacity:1" />
	<path
   d="m 51,16 v -1 h -1 c 0,0.5 0,1.5 0,2 h 1 z"
   id="path84"
   style="fill:#ffffff;fill-opacity:1" />
	<path
   d="m 45,16 v -1 h 1 c 0,-0.5 0,-1.5 0,-2 h -1 v 1 h -1 v 1 h -1 v 1 h 1 v 1 h 1 z"
   id="path85"
   style="fill:#ffffff;fill-opacity:1" />
	<rect
   x="42"
   y="16"
   width="1"
   height="1"
   id="rect85"
   style="fill:#ffffff;fill-opacity:1" />
	<rect
   x="58"
   y="15"
   width="1"
   height="1"
   id="rect86"
   style="fill:#ffffff;fill-opacity:1" />
	<rect
   x="41"
   y="15"
   width="1"
   height="1"
   id="rect87"
   style="fill:#ffffff;fill-opacity:1" />
	<rect
   x="62"
   y="14"
   width="1"
   height="1"
   id="rect88"
   style="fill:#ffffff;fill-opacity:1" />
	<rect
   x="57"
   y="14"
   width="1"
   height="1"
   id="rect89"
   style="fill:#ffffff;fill-opacity:1" />
	<rect
   x="51"
   y="14"
   width="1"
   height="1"
   id="rect90"
   style="fill:#ffffff;fill-opacity:1" />
	<rect
   x="42"
   y="14"
   width="1"
   height="1"
   id="rect91"
   style="fill:#ffffff;fill-opacity:1" />
	<rect
   x="61"
   y="13"
   width="1"
   height="1"
   id="rect92"
   style="fill:#ffffff;fill-opacity:1" />
	<rect
   x="56"
   y="13"
   width="1"
   height="1"
   id="rect93"
   style="fill:#ffffff;fill-opacity:1" />
	<rect
   x="52"
   y="13"
   width="1"
   height="1"
   id="rect94"
   style="fill:#ffffff;fill-opacity:1" />
	<rect
   x="43"
   y="13"
   width="1"
   height="1"
   id="rect95"
   style="fill:#ffffff;fill-opacity:1" />
	<rect
   x="41"
   y="13"
   width="1"
   height="1"
   id="rect96"
   style="fill:#ffffff;fill-opacity:1" />
	<rect
   x="60"
   y="12"
   width="1"
   height="1"
   id="rect97"
   style="fill:#ffffff;fill-opacity:1" />
	<rect
   x="53"
   y="12"
   width="1"
   height="1"
   id="rect98"
   style="fill:#ffffff;fill-opacity:1" />
	<rect
   x="46"
   y="12"
   width="1"
   height="1"
   id="rect99"
   style="fill:#ffffff;fill-opacity:1" />
	<rect
   x="44"
   y="12"
   width="1"
   height="1"
   id="rect100"
   style="fill:#ffffff;fill-opacity:1" />
	<rect
   x="42"
   y="12"
   width="1"
   height="1"
   id="rect101"
   style="fill:#ffffff;fill-opacity:1" />
	<path
   d="m 90,12 v 1 h 1 c 0,0.5 0,1.5 0,2 0.5,0 1.5,0 2,0 0,-0.89 0,-2.11 0,-3 h -1 v -1 h -1 v -1 c -0.89,0 -2.11,0 -3,0 0,0.5 0,1.5 0,2 0.5,0 1.5,0 2,0 z"
   id="path101"
   style="fill:#ffffff;fill-opacity:1" />
	<rect
   x="59"
   y="11"
   width="1"
   height="1"
   id="rect102"
   style="fill:#ffffff;fill-opacity:1" />
	<rect
   x="54"
   y="11"
   width="1"
   height="1"
   id="rect103"
   style="fill:#ffffff;fill-opacity:1" />
	<rect
   x="45"
   y="11"
   width="1"
   height="1"
   id="rect104"
   style="fill:#ffffff;fill-opacity:1" />
	<rect
   x="43"
   y="11"
   width="1"
   height="1"
   id="rect105"
   style="fill:#ffffff;fill-opacity:1" />
	<rect
   x="55"
   y="10"
   width="1"
   height="1"
   id="rect106"
   style="fill:#ffffff;fill-opacity:1"
   inkscape:label="rect106" />
	<polygon
   points="47,12 48,12 48,11 49,11 49,10 48,10 48,9 47,9 47,10 46,10 46,11 47,11 "
   id="polygon106"
   style="fill:#ffffff;fill-opacity:1" />
	<path
   d="m 45,10 h 1 V 9 c -0.89,0 -2.11,0 -3,0 v 1 h 1 v 1 h 1 z"
   id="path106"
   style="fill:#ffffff;fill-opacity:1" />
	<rect
   x="56"
   y="9"
   width="1"
   height="1"
   id="rect107"
   style="fill:#ffffff;fill-opacity:1" />
	<rect
   x="49"
   y="9"
   width="1"
   height="1"
   id="rect108"
   style="fill:#ffffff;fill-opacity:1" />
	<rect
   x="50"
   y="8"
   width="1"
   height="1"
   id="rect109"
   style="fill:#ffffff;fill-opacity:1" />
	<rect
   x="48"
   y="8"
   width="1"
   height="1"
   id="rect110"
   style="fill:#ffffff;fill-opacity:1" />
	<path
   d="m 42,8 c -0.5,0 -1.5,0 -2,0 v 1 c 0.89,0 2.11,0 3,0 V 8 Z"
   id="path110"
   style="fill:#ffffff;fill-opacity:1" />
	<rect
   x="51"
   y="7"
   width="1"
   height="1"
   id="rect111"
   style="fill:#ffffff;fill-opacity:1" />
	<rect
   x="49"
   y="7"
   width="1"
   height="1"
   id="rect112"
   style="fill:#ffffff;fill-opacity:1" />
	<path
   d="M 39,7 C 36.71,7 34.29,7 32,7 V 6 c 1.25,0 2.75,0 4,0 V 5 c 4.31,0 8.69,0 13,0 v 1 h 1 v 1 h 1 V 6 h 1 v 1 c 1.6,0 3.4,0 5,0 0,0.5 0,1.5 0,2 1.25,0 2.75,0 4,0 v 1 h 1 v 1 h 1 v 1 h 1 v 1 h 1 c 0,0.89 0,2.11 0,3 h -1 v 1 c 0.89,0 2.11,0 3,0 0,0.5 0,1.5 0,2 0.5,0 1.5,0 2,0 v -1 c 0.5,0 1.5,0 2,0 v -1 c 0.5,0 1.5,0 2,0 v -1 c 0.5,0 1.5,0 2,0 v -1 c 2.29,0 4.71,0 7,0 v 1 c 0.89,0 2.11,0 3,0 v 1 h 1 v 1 c -1.25,0 -2.75,0 -4,0 v 1 c -0.89,0 -2.11,0 -3,0 v 1 c -0.5,0 -1.5,0 -2,0 v 1 c -0.5,0 -1.5,0 -2,0 v 1 h -1 v 1 h -1 v 1 h -1 v 1 h -1 v 1 h -1 v 1 h -1 v 1 h -1 v 1 h -1 v 1 h -1 v 1 h -1 v 1 h -1 v 1 h -1 v 1 h -1 v 1 h -1 v 1 h -1 v 1 h -1 v 1 h -1 v 1 c -0.5,0 -1.5,0 -2,0 v 1 c -0.5,0 -1.5,0 -2,0 v 1 c -0.89,0 -2.11,0 -3,0 v 1 c -1.6,0 -3.4,0 -5,0 v 1 c 8.65,0 17.35,0 26,0 v -1 c -3.97,0 -8.03,0 -12,0 0,-0.5 0,-1.5 0,-2 h 1 v -1 h 1 v -1 h 1 v -1 c 2.29,0 4.71,0 7,0 v 1 c 1.25,0 2.75,0 4,0 v -1 c 3.97,0 8.03,0 12,0 v 1 c 0.5,0 1.5,0 2,0 0,0.89 0,2.11 0,3 h -1 v 1 h -1 v 1 h -1 v 1 h -1 v 1 c -0.5,0 -1.5,0 -2,0 v 1 c -0.89,0 -2.11,0 -3,0 v 1 c -0.89,0 -2.11,0 -3,0 v 1 c -0.89,0 -2.11,0 -3,0 v 1 c -1.25,0 -2.75,0 -4,0 v 1 c -1.25,0 -2.75,0 -4,0 v 1 c -0.89,0 -2.11,0 -3,0 v 1 c -0.5,0 -1.5,0 -2,0 v 1 c -0.5,0 -1.5,0 -2,0 0,0.5 0,1.5 0,2 h 1 v -1 h 1 v 1 h 1 v 1 h 1 v -1 h 1 v 1 h 1 v 1 h 1 v -1 h 1 v 1 h 1 v 1 h 1 v 1 c 0.5,0 1.5,0 2,0 0,-0.89 0,-2.11 0,-3 h -1 c 0,-1.25 0,-2.75 0,-4 h 1 c 0,-0.5 0,-1.5 0,-2 1.25,0 2.75,0 4,0 v -1 c 0.89,0 2.11,0 3,0 v -1 c 0.89,0 2.11,0 3,0 v -1 c 0.89,0 2.11,0 3,0 v -1 c 0.5,0 1.5,0 2,0 v -1 h 1 v -1 h 1 v -1 h 1 v -1 h 1 c 0,-1.6 0,-3.4 0,-5 h -1 v -1 c -5.65,0 -11.35,0 -17,0 v -1 h 1 v -1 h 1 v -1 h 1 v -1 h 1 v -1 h 1 v -1 h 1 v -1 h 1 v -1 h 1 v -1 h 1 v -1 h 1 v -1 h 1 v -1 h 1 v -1 h 1 v -1 h 1 v -1 h 1 v -1 h 1 c 0,-1.25 0,-2.75 0,-4 h -1 v -1 c -0.89,0 -2.11,0 -3,0 v -1 c -2.97,0 -6.03,0 -9,0 v 1 c -0.5,0 -1.5,0 -2,0 v 1 c -0.5,0 -1.5,0 -2,0 v 1 c -0.5,0 -1.5,0 -2,0 v -1 h -1 c 0,-0.5 0,-1.5 0,-2 h -1 c 0,-0.5 0,-1.5 0,-2 H 65 V 11 H 64 V 10 H 63 V 9 H 62 V 8 C 61.5,8 60.5,8 60,8 V 7 C 59.5,7 58.5,7 58,7 V 6 C 57.11,6 55.89,6 55,6 V 5 C 53.4,5 51.6,5 50,5 V 4 C 45.02,4 39.98,4 35,4 v 1 c -1.25,0 -2.75,0 -4,0 v 1 c -0.89,0 -2.11,0 -3,0 v 1 h -1 v 1 c -0.5,0 -1.5,0 -2,0 v 1 c -0.5,0 -1.5,0 -2,0 v 1 h -1 v 1 h -1 v 1 h -1 v 1 h -1 v 1 h -1 c 0,0.5 0,1.5 0,2 h -1 c 0,0.89 0,2.11 0,3 h 1 c 0,-0.5 0,-1.5 0,-2 h 1 c 0,-0.5 0,-1.5 0,-2 h 1 v -1 h 1 v -1 h 1 v -1 h 1 v -1 h 1 v -1 c 0.5,0 1.5,0 2,0 V 9 c 0.5,0 1.5,0 2,0 V 8 c 3.97,0 8.03,0 12,0 V 7 Z"
   id="path112"
   style="fill:#ffffff;fill-opacity:1" />
	<path
   d="m 90,7 v 1 c 0.5,0 1.5,0 2,0 v 1 h 1 v 1 h 1 v 1 h 1 c 0,0.5 0,1.5 0,2 h 1 c 0,0.5 0,1.5 0,2 0.5,0 1.5,0 2,0 0,-0.89 0,-2.11 0,-3 h -1 c 0,-0.5 0,-1.5 0,-2 H 96 V 9 H 95 V 8 H 94 V 7 H 93 V 6 C 92.5,6 91.5,6 91,6 V 5 c -0.89,0 -2.11,0 -3,0 0,0.5 0,1.5 0,2 0.5,0 1.5,0 2,0 z"
   id="path113"
   style="fill:#ffffff;fill-opacity:1" />
	<path
   d="m 90,2 h 1 v 1 c 0.5,0 1.5,0 2,0 v 1 c 0.5,0 1.5,0 2,0 v 1 h 1 v 1 h 1 v 1 h 1 v 1 h 1 c 0,0.5 0,1.5 0,2 h 1 c 0,0.5 0,1.5 0,2 h 1 c 0,0.89 0,2.11 0,3 0.5,0 1.5,0 2,0 0,-1.25 0,-2.75 0,-4 h -1 c 0,-0.5 0,-1.5 0,-2 h -1 c 0,-0.5 0,-1.5 0,-2 h -1 V 6 H 99 V 5 H 98 V 4 H 97 V 3 H 96 V 2 C 95.5,2 94.5,2 94,2 V 1 C 93.5,1 92.5,1 92,1 V 0 c -1.25,0 -2.75,0 -4,0 0,0.5 0,1.5 0,2 0.5,0 1.5,0 2,0 z"
   id="path114"
   style="fill:#ffffff;fill-opacity:1" />
</g></svg>
