<?xml version="1.0" encoding="UTF-8" standalone="no"?>
<!-- Created with Inkscape (http://www.inkscape.org/) -->

<svg
   width="64"
   height="64"
   version="1.1"
   viewBox="0 0 16.933 16.933"
   id="svg10"
   sodipodi:docname="solaar.svg"
   xml:space="preserve"
   inkscape:version="1.4.3 (fcd0343856, 2026-01-01)"
   xmlns:inkscape="http://www.inkscape.org/namespaces/inkscape"
   xmlns:sodipodi="http://sodipodi.sourceforge.net/DTD/sodipodi-0.dtd"
   xmlns:xlink="http://www.w3.org/1999/xlink"
   xmlns="http://www.w3.org/2000/svg"
   xmlns:svg="http://www.w3.org/2000/svg"><sodipodi:namedview
     id="namedview10"
     pagecolor="#ffffff"
     bordercolor="#000000"
     borderopacity="0.25"
     inkscape:showpageshadow="2"
     inkscape:pageopacity="0.0"
     inkscape:pagecheckerboard="0"
     inkscape:deskcolor="#d1d1d1"
     inkscape:zoom="3.4416214"
     inkscape:cx="41.404903"
     inkscape:cy="42.857707"
     inkscape:window-width="1374"
     inkscape:window-height="831"
     inkscape:window-x="0"
     inkscape:window-y="0"
     inkscape:window-maximized="1"
     inkscape:current-layer="svg10" /><defs
     id="defs6"><filter
       id="filter1057"
       x="-0.026999999"
       y="-0.026999999"
       width="1.054"
       height="1.054"
       color-interpolation-filters="sRGB"><feGaussianBlur
         stdDeviation="0.61875"
         id="feGaussianBlur1" /></filter><linearGradient
       id="linearGradient1053"
       x1="-127"
       x2="-72"
       y1="60"
       y2="5"
       gradientTransform="matrix(.26458 0 0 .26458 48.668 7.4404)"
       gradientUnits="userSpaceOnUse"><stop
         stop-color="#32d7ff"
         offset="0"
         id="stop1" /><stop
         stop-color="#329bff"
         offset="1"
         id="stop2" /></linearGradient><filter
       id="filter9871"
       x="-0.078202704"
       y="-0.048671155"
       width="1.1564054"
       height="1.0973423"
       color-interpolation-filters="sRGB"><feGaussianBlur
         stdDeviation="0.1886575"
         id="feGaussianBlur2" /></filter><linearGradient
       id="linearGradient26242"
       x1="6.3526"
       x2="12.192"
       y1="11.867"
       y2="3.2985"
       gradientTransform="translate(13.878 7.4183)"
       gradientUnits="userSpaceOnUse"><stop
         stop-color="#fff"
         stop-opacity=".5"
         offset="0"
         id="stop3" /><stop
         stop-color="#fff"
         offset="1"
         id="stop4" /></linearGradient><linearGradient
       id="linearGradient26250"
       x1="7.2286"
       x2="8.3224"
       y1="6.0537"
       y2="6.0537"
       gradientTransform="matrix(.88217 -.12198 .12198 .88217 13.698 9.3953)"
       gradientUnits="userSpaceOnUse"><stop
         stop-color="#00c8ff"
         offset="0"
         id="stop5" /><stop
         stop-color="#14b4ff"
         offset="1"
         id="stop6" /></linearGradient><inkscape:path-effect
       effect="powerclip"
       message=""
       id="path-effect4"
       is_visible="true"
       lpeversion="1"
       inverse="true"
       flatten="false"
       hide_clip="false" /><linearGradient
       id="gradient_black"><stop
         style="stop-color:#000000;stop-opacity:1"
         offset="0"
         id="stop1-3" /><stop
         style="stop-color:#000000;stop-opacity:0.9"
         offset="1"
         id="stop2-6" /></linearGradient><linearGradient
       x1="5"
       y1="50"
       x2="95"
       y2="50"
       id="gradient_rect"
       xlink:href="#gradient_black"
       gradientUnits="userSpaceOnUse" /><linearGradient
       x1="37"
       y1="50"
       x2="63"
       y2="50"
       id="gradient_dot"
       xlink:href="#gradient_black"
       gradientUnits="userSpaceOnUse" /><clipPath
       clipPathUnits="userSpaceOnUse"
       id="clipPath4"><path
         d="m 62,50 a 12,12 0 1 1 -24,0 12,12 0 1 1 24,0 z"
         style="display:none;fill:url(#gradient_dot);fill-opacity:1;fill-rule:nonzero;stroke:#000000;stroke-opacity:1"
         id="path4" /><path
         id="lpe_path-effect4"
         style="display:block;fill:url(#gradient_dot);fill-opacity:1;fill-rule:nonzero;stroke:#000000;stroke-opacity:1"
         class="powerclip"
         d="m 10,11.6875 h 80 v 76.625 H 10 Z M 62,50 a 12,12 0 1 0 -24,0 12,12 0 1 0 24,0 z" /></clipPath></defs><g
     transform="translate(-13.876,-7.5753001)"
     id="g10"
     inkscape:label="bg"><rect
       transform="matrix(.26458 0 0 .26458 13.876 7.5753)"
       x="4.5"
       y="4.5"
       width="55"
       height="55"
       ry="15"
       fill="#141414"
       filter="url(#filter1057)"
       opacity=".3"
       stroke-linecap="round"
       stroke-width="2.7444"
       id="rect6"
       inkscape:label="shadow" /><rect
       x="15.067"
       y="8.7659"
       width="14.552"
       height="14.552"
       ry="3.9687"
       fill="url(#linearGradient1053)"
       stroke-linecap="round"
       stroke-width=".72611"
       id="rect7"
       inkscape:label="backdrop" /></g><g
     id="g11"
     inkscape:label="logo"
     transform="matrix(0.88635186,0,0,0.88635186,6.1947368,0.25867402)"><path
       d="m 37.6875,16.6875 9.03125,15.625 C 47.784179,32.115965 48.877705,32 50,32 c 1.122295,0 2.215821,0.115965 3.28125,0.3125 l 9.03125,-15.625 10.375,6 -9.03125,15.625 C 65.078123,39.972287 66.191785,41.898777 66.9375,44 H 85 V 56 H 66.9375 c -0.745715,2.101223 -1.859377,4.027713 -3.28125,5.6875 l 9.03125,15.625 -10.375,6 -9.03125,-15.625 C 52.215821,67.884035 51.122295,68 50,68 48.877705,68 47.784179,67.884035 46.71875,67.6875 l -9.03125,15.625 -10.375,-6 9.03125,-15.625 C 34.921877,60.027713 33.808215,58.101223 33.0625,56 H 15 V 44 h 18.0625 c 0.745715,-2.101223 1.859377,-4.027713 3.28125,-5.6875 L 27.3125,22.6875 Z"
       style="fill:#ffffff;fill-opacity:1;fill-rule:nonzero;stroke:none;stroke-width:1;stroke-linecap:butt;stroke-linejoin:round;stroke-miterlimit:4;stroke-opacity:1"
       id="path2"
       sodipodi:nodetypes="ccsccccccccccccsccccccccccc"
       clip-path="url(#clipPath4)"
       inkscape:path-effect="#path-effect4"
       inkscape:original-d="m 37.6875,16.6875 9.03125,15.625 C 47.784179,32.115965 48.877705,32 50,32 c 1.122295,0 2.215821,0.115965 3.28125,0.3125 l 9.03125,-15.625 10.375,6 -9.03125,15.625 C 65.078123,39.972287 66.191785,41.898777 66.9375,44 H 85 V 56 H 66.9375 c -0.745715,2.101223 -1.859377,4.027713 -3.28125,5.6875 l 9.03125,15.625 -10.375,6 -9.03125,-15.625 C 52.215821,67.884035 51.122295,68 50,68 48.877705,68 47.784179,67.884035 46.71875,67.6875 l -9.03125,15.625 -10.375,-6 9.03125,-15.625 C 34.921877,60.027713 33.808215,58.101223 33.0625,56 H 15 V 44 h 18.0625 c 0.745715,-2.101223 1.859377,-4.027713 3.28125,-5.6875 L 27.3125,22.6875 Z"
       inkscape:label="solaar"
       transform="matrix(0.151069,0,0,0.151069,-4.990401,1.7067844)" /></g></svg>
